<svg width="40" height="40" viewBox="0 0 40 40" fill="none" xmlns="http://www.w3.org/2000/svg">
<path d="M20 15.9064L22.5103 0L20.9986 16.0349L27.3752 1.24828L21.9331 16.402L31.782 3.68059L22.7394 16.9894L35.4466 7.12253L23.3807 17.7696L38.131 11.3722L23.8113 18.6783L39.6885 16.1542L24.0037 19.6696L40 21.184L23.9395 20.67L39.0563 26.1221L23.628 21.6338L36.9217 30.6838L23.0875 22.4782L33.7151 34.5571L22.3546 23.1666L29.6564 37.5126L21.475 23.6531L24.984 39.3667L20.5039 23.9009L20 40L19.4961 23.9009L15.016 39.3667L18.525 23.6531L10.3436 37.5126L17.6454 23.1666L6.28493 34.5571L16.9125 22.4782L3.07833 30.6838L16.372 21.6338L0.943656 26.1221L16.0605 20.67L0 21.184L15.9963 19.6696L0.311498 16.1542L16.1887 18.6783L1.86899 11.3722L16.6193 17.7696L4.55337 7.12253L17.2607 16.9894L8.21805 3.68059L18.0669 16.402L12.6248 1.24828L19.0014 16.0349L17.4897 0L20 15.9064Z" fill="black"/>
</svg>
