<svg width="117" height="27" viewBox="0 0 117 27" fill="none" xmlns="http://www.w3.org/2000/svg">
<path d="M0.00221104 10.0003C-0.0775286 9.95975 2.02314 10.3061 2.48493 10.4103C4.21668 10.7996 6.58401 11.2696 7.69661 12.1434C7.71538 12.1589 1.48349 13.8768 1.48349 15.6102C1.48349 17.3434 8.60353 15.0631 10.3003 16.398C10.5515 16.5962 5.69046 19.2628 5.69046 20.6526C5.69046 22.0424 12.3044 21.9176 12.3044 22.2291C12.3044 22.5166 6.46581 26.0777 8.2963 26.7984C9.57214 27.3003 12.5354 26.2869 13.7076 26.0106C17.0663 25.2177 20.651 24.698 24.1295 24.2772C40.9173 22.2481 57.9354 21.7582 74.8378 20.8107C85.4978 20.2117 96.1194 21.756 106.706 21.756C106.706 21.756 116.329 22.7014 116.329 21.756C116.329 20.8107 110.05 19.4931 106.706 16.8711C106.592 16.7822 108.26 16.496 108.509 16.398C110.04 15.7969 111.745 15.1602 113.32 14.6656C113.594 14.5788 116.43 13.9596 116.329 13.8768C113.907 11.9736 106.93 12.7903 104.704 11.0407C104.467 10.854 106.75 9.70575 106.908 9.6225C108.348 8.86731 111.317 8.35721 111.317 6.94301C111.317 5.5288 104.936 6.3398 104.3 5.84073C103.448 5.16998 108.509 3.16171 108.509 2.06248C108.509 0.172882 99.3341 -0.305556 93.878 0.172882C86.3621 0.829327 78.7669 0.643111 71.2306 1.4323C62.469 2.35001 53.3996 2.69969 44.575 3.16171C34.3873 3.69643 23.8589 4.89487 13.709 4.89487C12.2666 4.89487 2.27995 4.58342 1.48349 5.21055C0.389182 6.06986 0.141521 8.38677 0.00221104 10.0003Z" fill="#FCDDEC"/>
</svg>
